<svg width="32" height="33" viewBox="0 0 32 33" fill="none" xmlns="http://www.w3.org/2000/svg">
<path opacity="0.2" d="M6.99953 13.2852C6.99959 12.0975 7.23472 10.9215 7.69137 9.82512C8.14802 8.72871 8.81715 7.73353 9.6602 6.89693C10.5033 6.06033 11.5035 5.39887 12.6034 4.95066C13.7033 4.50244 14.881 4.27635 16.0687 4.28542C21.0316 4.32221 25.0014 8.43558 25.0014 13.3981V14.2852C25.0014 18.7621 25.9407 21.36 26.768 22.7799C26.857 22.9318 26.9043 23.1045 26.9051 23.2806C26.906 23.4566 26.8603 23.6297 26.7728 23.7825C26.6852 23.9352 26.5589 24.0621 26.4066 24.1504C26.2543 24.2387 26.0814 24.2852 25.9054 24.2852H6.09451C5.91845 24.2852 5.74552 24.2386 5.5932 24.1504C5.44087 24.0621 5.31456 23.9351 5.22704 23.7824C5.13951 23.6296 5.09387 23.4564 5.09474 23.2804C5.0956 23.1043 5.14294 22.9316 5.23196 22.7797C6.05975 21.3598 6.99953 18.7619 6.99953 14.2852V13.2852Z" fill="white"/>
<path d="M12 28.2852H20" stroke="white" stroke-width="2" stroke-linecap="round" stroke-linejoin="round"/>
<path d="M7.02523 13.2851C7.02357 12.0991 7.25667 10.9245 7.71108 9.82902C8.16549 8.73354 8.83223 7.73882 9.67287 6.90222C10.5135 6.06562 11.5114 5.40368 12.6091 4.95454C13.7067 4.50541 14.8824 4.27797 16.0684 4.28533C21.0171 4.32212 24.9755 8.4355 24.9755 13.3981V14.2851C24.9755 18.762 25.9121 21.3599 26.7371 22.7798C26.826 22.9316 26.8732 23.104 26.8742 23.2799C26.8751 23.4557 26.8297 23.6287 26.7424 23.7813C26.6552 23.934 26.5292 24.0609 26.3773 24.1494C26.2253 24.2378 26.0527 24.2846 25.8769 24.2851H6.1228C5.94695 24.2846 5.77433 24.2378 5.62235 24.1493C5.47038 24.0609 5.34442 23.9339 5.25719 23.7812C5.16995 23.6285 5.12453 23.4555 5.1255 23.2797C5.12647 23.1038 5.1738 22.9313 5.26272 22.7796C6.08813 21.3597 7.02522 18.7618 7.02522 14.2851L7.02523 13.2851Z" stroke="white" stroke-width="2" stroke-linecap="round" stroke-linejoin="round"/>
</svg>
