<svg width="28" height="28" viewBox="0 0 28 28" fill="none" xmlns="http://www.w3.org/2000/svg">
<path d="M20.1226 3.5H7.87256C7.40859 3.50053 6.96378 3.68508 6.63571 4.01315C6.30763 4.34122 6.12309 4.78603 6.12256 5.25V24.5C6.12257 24.6562 6.16438 24.8095 6.24366 24.9441C6.32294 25.0787 6.4368 25.1896 6.57341 25.2653C6.71002 25.341 6.86441 25.3788 7.02055 25.3747C7.17668 25.3706 7.32888 25.3248 7.46133 25.242L13.9968 21.1568L20.5338 25.242C20.6663 25.3248 20.8185 25.3706 20.9746 25.3747C21.1308 25.3788 21.2851 25.341 21.4217 25.2653C21.5584 25.1896 21.6722 25.0787 21.7515 24.9441C21.8308 24.8095 21.8726 24.6562 21.8726 24.5V5.25C21.872 4.78603 21.6875 4.34122 21.3594 4.01315C21.0313 3.68508 20.5865 3.50053 20.1226 3.5Z" fill="#003270"/>
</svg>
