<svg width="32" height="33" viewBox="0 0 32 33" fill="none" xmlns="http://www.w3.org/2000/svg">
<path opacity="0.2" d="M9.74808 25.4536L5.64348 28.9041C5.49771 29.0266 5.31998 29.105 5.1312 29.13C4.94241 29.155 4.75042 29.1255 4.57779 29.0451C4.40516 28.9647 4.25908 28.8367 4.15673 28.6761C4.05437 28.5155 4 28.329 4 28.1386V8.28564C4 8.02043 4.10536 7.76607 4.29289 7.57854C4.48043 7.391 4.73478 7.28564 5 7.28564H27C27.2652 7.28564 27.5196 7.391 27.7071 7.57854C27.8946 7.76607 28 8.02043 28 8.28564V24.2856C28 24.5509 27.8946 24.8052 27.7071 24.9928C27.5196 25.1803 27.2652 25.2856 27 25.2856H10.2089L9.74808 25.4536Z" fill="white"/>
<path d="M9.66887 25.5202L5.64348 28.9041C5.49771 29.0266 5.31998 29.105 5.1312 29.13C4.94241 29.155 4.75042 29.1255 4.57779 29.0451C4.40516 28.9647 4.25908 28.8367 4.15673 28.6761C4.05437 28.5155 4 28.329 4 28.1386V8.28564C4 8.02043 4.10536 7.76607 4.29289 7.57854C4.48043 7.391 4.73478 7.28564 5 7.28564H27C27.2652 7.28564 27.5196 7.391 27.7071 7.57854C27.8946 7.76607 28 8.02043 28 8.28564V24.2856C28 24.5509 27.8946 24.8052 27.7071 24.9928C27.5196 25.1803 27.2652 25.2856 27 25.2856H10.3123C10.0769 25.2856 9.84907 25.3687 9.66887 25.5202Z" stroke="white" stroke-width="2" stroke-linecap="round" stroke-linejoin="round"/>
<path d="M16 17.7856C16.8284 17.7856 17.5 17.1141 17.5 16.2856C17.5 15.4572 16.8284 14.7856 16 14.7856C15.1716 14.7856 14.5 15.4572 14.5 16.2856C14.5 17.1141 15.1716 17.7856 16 17.7856Z" fill="white"/>
<path d="M10 17.7856C10.8284 17.7856 11.5 17.1141 11.5 16.2856C11.5 15.4572 10.8284 14.7856 10 14.7856C9.17157 14.7856 8.5 15.4572 8.5 16.2856C8.5 17.1141 9.17157 17.7856 10 17.7856Z" fill="white"/>
<path d="M22 17.7856C22.8284 17.7856 23.5 17.1141 23.5 16.2856C23.5 15.4572 22.8284 14.7856 22 14.7856C21.1716 14.7856 20.5 15.4572 20.5 16.2856C20.5 17.1141 21.1716 17.7856 22 17.7856Z" fill="white"/>
</svg>
