<svg width="32" height="33" viewBox="0 0 32 33" fill="none" xmlns="http://www.w3.org/2000/svg">
<path d="M5.26056 6.28564H26.7395C26.9332 6.28564 27.1227 6.34192 27.2851 6.44763C27.4474 6.55333 27.5756 6.70392 27.654 6.88109C27.7323 7.05826 27.7576 7.25438 27.7266 7.44562C27.6956 7.63685 27.6097 7.81497 27.4794 7.95832L19.2601 16.9996C19.0927 17.1837 19 17.4235 19 17.6723V24.7505C19 24.9151 18.9594 25.0772 18.8817 25.2223C18.804 25.3675 18.6917 25.4912 18.5547 25.5825L14.5547 28.2492C14.4041 28.3496 14.2291 28.4072 14.0483 28.416C13.8675 28.4247 13.6877 28.3842 13.5282 28.2988C13.3686 28.2134 13.2352 28.0863 13.1421 27.931C13.0491 27.7757 13 27.5981 13 27.4171V17.6723C13 17.4235 12.9073 17.1837 12.7399 16.9996L4.52062 7.95832C4.3903 7.81497 4.30443 7.63685 4.27344 7.44562C4.24245 7.25438 4.26767 7.05826 4.34605 6.88109C4.42442 6.70392 4.55257 6.55333 4.71492 6.44763C4.87727 6.34192 5.06683 6.28564 5.26056 6.28564V6.28564Z" stroke="#003270" stroke-width="2" stroke-linecap="round" stroke-linejoin="round"/>
</svg>
