<svg width="32" height="32" viewBox="0 0 32 32" fill="none" xmlns="http://www.w3.org/2000/svg">
<path d="M16.0001 22C19.3138 22 22.0001 19.3137 22.0001 16C22.0001 12.6863 19.3138 10 16.0001 10C12.6864 10 10.0001 12.6863 10.0001 16C10.0001 19.3137 12.6864 22 16.0001 22Z" stroke="#003270" stroke-width="2" stroke-linecap="round" stroke-linejoin="round"/>
<path d="M24.6757 10.0812C24.9715 10.5154 25.2342 10.9713 25.4617 11.4449L28.705 13.2454C29.1 15.0597 29.1014 16.9376 28.7089 18.7526L25.4639 20.554C25.2357 21.0272 24.9722 21.4827 24.6758 21.9165L24.7382 25.6255C23.3645 26.8747 21.7388 27.8149 19.9708 28.3825L16.7882 26.4729C16.2642 26.5119 15.7381 26.5115 15.2142 26.4716L12.0333 28.3802C10.2645 27.8152 8.6375 26.8774 7.26195 25.6301L7.32442 21.919C7.02865 21.4848 6.76594 21.0289 6.53849 20.5553L3.29521 18.7548C2.90017 16.9405 2.89882 15.0625 3.29123 13.2476L6.53632 11.4462C6.76451 10.9729 7.02795 10.5175 7.3244 10.0837L7.26197 6.37473C8.63571 5.12544 10.2614 4.18529 12.0294 3.61768L15.212 5.52729C15.7359 5.48828 16.2621 5.4887 16.786 5.52854L19.9668 3.61998C21.7356 4.18503 23.3627 5.12284 24.7382 6.37013L24.6757 10.0812Z" stroke="#003270" stroke-width="2" stroke-linecap="round" stroke-linejoin="round"/>
</svg>
