<svg width="28" height="28" viewBox="0 0 28 28" fill="none" xmlns="http://www.w3.org/2000/svg">
<path d="M25.1177 23.8808L20.3902 19.1533C22.0596 17.1652 22.8972 14.6092 22.7281 12.0186C22.559 9.42797 21.3963 7.0026 19.4826 5.24829C17.5689 3.49398 15.0518 2.54615 12.4562 2.60247C9.86068 2.65879 7.38707 3.71491 5.55123 5.55058C3.71539 7.38625 2.65905 9.85977 2.60249 12.4553C2.54594 15.0508 3.49353 17.568 5.24767 19.4819C7.00181 21.3958 9.42707 22.5587 12.0177 22.728C14.6083 22.8973 17.1643 22.06 19.1526 20.3908L23.8801 25.1183C23.9614 25.1995 24.0579 25.264 24.164 25.308C24.2702 25.3519 24.384 25.3746 24.4989 25.3746C24.6138 25.3746 24.7276 25.3519 24.8337 25.308C24.9399 25.264 25.0364 25.1996 25.1176 25.1183C25.1989 25.0371 25.2633 24.9406 25.3073 24.8344C25.3513 24.7283 25.3739 24.6145 25.3739 24.4996C25.3739 24.3847 25.3513 24.2709 25.3073 24.1647C25.2634 24.0586 25.1989 23.9621 25.1177 23.8808ZM16.1871 13.5624H13.5621V16.1874C13.5621 16.4194 13.4699 16.642 13.3058 16.8061C13.1417 16.9702 12.9191 17.0624 12.6871 17.0624C12.455 17.0624 12.2324 16.9702 12.0683 16.8061C11.9042 16.642 11.8121 16.4194 11.8121 16.1874V13.5624H9.18705C8.95499 13.5624 8.73243 13.4702 8.56833 13.3061C8.40424 13.142 8.31205 12.9194 8.31205 12.6874C8.31205 12.4553 8.40424 12.2327 8.56833 12.0687C8.73243 11.9046 8.95499 11.8124 9.18705 11.8124H11.8121V9.18737C11.8121 8.95531 11.9042 8.73275 12.0683 8.56866C12.2324 8.40456 12.455 8.31237 12.6871 8.31237C12.9191 8.31237 13.1417 8.40456 13.3058 8.56866C13.4699 8.73275 13.5621 8.95531 13.5621 9.18737V11.8124H16.1871C16.4191 11.8124 16.6417 11.9046 16.8058 12.0687C16.9699 12.2327 17.0621 12.4553 17.0621 12.6874C17.0621 12.9194 16.9699 13.142 16.8058 13.3061C16.6417 13.4702 16.4191 13.5624 16.1871 13.5624Z" fill="#003270"/>
</svg>
