<svg width="88" height="88" viewBox="0 0 88 88" fill="none" xmlns="http://www.w3.org/2000/svg">
<path d="M50.3775 72.2333H13.0166C12.2873 72.2333 11.5878 71.9435 11.0721 71.4278C10.5563 70.9121 10.2666 70.2126 10.2666 69.4833V14.4833C10.2666 13.7539 10.5563 13.0545 11.0721 12.5387C11.5878 12.023 12.2873 11.7333 13.0166 11.7333H68.0166C68.746 11.7333 69.4454 12.023 69.9612 12.5387C70.4769 13.0545 70.7666 13.7539 70.7666 14.4833V51.8442C70.7666 52.2053 70.6955 52.5629 70.5573 52.8966C70.4191 53.2302 70.2165 53.5334 69.9612 53.7887L52.3221 71.4278C52.0667 71.6832 51.7635 71.8857 51.4299 72.0239C51.0962 72.1621 50.7387 72.2333 50.3775 72.2333Z" fill="#C6E1FF" stroke="#003270" stroke-width="4" stroke-linecap="round" stroke-linejoin="round"/>
<path d="M70.5195 52.9805H51.5166V71.983" stroke="black" stroke-width="4" stroke-linecap="round" stroke-linejoin="round"/>
<path d="M50.7833 78.2834H39.7833C39.2971 78.2834 38.8307 78.0902 38.4869 77.7464C38.1431 77.4026 37.95 76.9363 37.95 76.45V66.2094C37.95 65.9687 37.9974 65.7303 38.0895 65.5078C38.1816 65.2854 38.3167 65.0833 38.4869 64.9131L65.9869 37.4131C66.3307 37.0693 66.7971 36.8761 67.2833 36.8761C67.7695 36.8761 68.2358 37.0693 68.5796 37.4131L78.8203 47.6537C79.1641 47.9975 79.3572 48.4638 79.3572 48.95C79.3572 49.4363 79.1641 49.9026 78.8203 50.2464L50.7833 78.2834Z" fill="white" stroke="#003270" stroke-width="3" stroke-linecap="round" stroke-linejoin="round"/>
<path d="M59.95 43.45L72.7833 56.2833" stroke="#003270" stroke-width="3" stroke-linecap="round" stroke-linejoin="round"/>
<path d="M78.2831 78.2833H50.7831L38.0664 65.5667" stroke="#003270" stroke-width="3" stroke-linecap="round" stroke-linejoin="round"/>
<path d="M29.3333 29.3334H51.3333" stroke="#003270" stroke-width="3" stroke-linecap="round" stroke-linejoin="round"/>
<path d="M29.3333 40.3334H51.3333" stroke="#003270" stroke-width="3" stroke-linecap="round" stroke-linejoin="round"/>
<path d="M29.3333 51.3334H40.3333" stroke="#003270" stroke-width="3" stroke-linecap="round" stroke-linejoin="round"/>
</svg>
