<svg width="28" height="28" viewBox="0 0 28 28" fill="none" xmlns="http://www.w3.org/2000/svg">
<path d="M22.75 3.5H5.25C4.78597 3.50031 4.34103 3.68479 4.01291 4.01291C3.68479 4.34103 3.50031 4.78597 3.5 5.25V22.75C3.50031 23.214 3.68479 23.659 4.01291 23.9871C4.34103 24.3152 4.78597 24.4997 5.25 24.5H17.1377C17.3676 24.5004 17.5952 24.4553 17.8076 24.3673C18.02 24.2794 18.2128 24.1502 18.375 23.9873L23.9873 18.375C24.1502 18.2128 24.2794 18.02 24.3673 17.8076C24.4553 17.5952 24.5004 17.3676 24.5 17.1377V5.25C24.4997 4.78597 24.3152 4.34103 23.9871 4.01291C23.659 3.68479 23.214 3.50031 22.75 3.5ZM10.5 9.625H17.5C17.7321 9.625 17.9546 9.71719 18.1187 9.88128C18.2828 10.0454 18.375 10.2679 18.375 10.5C18.375 10.7321 18.2828 10.9546 18.1187 11.1187C17.9546 11.2828 17.7321 11.375 17.5 11.375H10.5C10.2679 11.375 10.0454 11.2828 9.88128 11.1187C9.71719 10.9546 9.625 10.7321 9.625 10.5C9.625 10.2679 9.71719 10.0454 9.88128 9.88128C10.0454 9.71719 10.2679 9.625 10.5 9.625ZM14 18.375H10.5C10.2679 18.375 10.0454 18.2828 9.88128 18.1187C9.71719 17.9546 9.625 17.7321 9.625 17.5C9.625 17.2679 9.71719 17.0454 9.88128 16.8813C10.0454 16.7172 10.2679 16.625 10.5 16.625H14C14.2321 16.625 14.4546 16.7172 14.6187 16.8813C14.7828 17.0454 14.875 17.2679 14.875 17.5C14.875 17.7321 14.7828 17.9546 14.6187 18.1187C14.4546 18.2828 14.2321 18.375 14 18.375ZM10.5 14.875C10.2679 14.875 10.0454 14.7828 9.88128 14.6187C9.71719 14.4546 9.625 14.2321 9.625 14C9.625 13.7679 9.71719 13.5454 9.88128 13.3813C10.0454 13.2172 10.2679 13.125 10.5 13.125H17.5C17.7321 13.125 17.9546 13.2172 18.1187 13.3813C18.2828 13.5454 18.375 13.7679 18.375 14C18.375 14.2321 18.2828 14.4546 18.1187 14.6187C17.9546 14.7828 17.7321 14.875 17.5 14.875H10.5ZM17.5 22.3877V17.4983H22.3894L17.5 22.3877Z" fill="#003270"/>
</svg>
