<svg width="28" height="28" viewBox="0 0 28 28" fill="none" xmlns="http://www.w3.org/2000/svg">
<path d="M14.7813 2.49523L14.7814 2.4953L26.2058 13.9197C26.3625 14.0765 26.4868 14.2625 26.5717 14.4673C26.6565 14.672 26.7001 14.8915 26.7001 15.1131C26.7001 15.3347 26.6564 15.5542 26.5716 15.7589C26.4868 15.9637 26.3624 16.1497 26.2057 16.3064L26.2499 16.3506L26.2057 16.3064L16.3063 26.2058C16.1496 26.3625 15.9636 26.4868 15.7588 26.5716C15.554 26.6564 15.3346 26.7001 15.113 26.7001C14.8913 26.7001 14.6719 26.6564 14.4671 26.5716C14.2624 26.4867 14.0764 26.3624 13.9197 26.2057L13.8755 26.2499L13.9197 26.2057L2.49532 14.7813L2.49527 14.7813C2.29859 14.585 2.15353 14.3431 2.07301 14.0772C1.99248 13.8113 1.97901 13.5296 2.03377 13.2572L2.03379 13.2571L3.79809 4.43543C3.79809 4.43543 3.79809 4.43542 3.79809 4.43542C3.82959 4.27815 3.90691 4.13372 4.02033 4.02031C4.13374 3.90689 4.27817 3.82957 4.43544 3.79807C4.43545 3.79807 4.43545 3.79807 4.43546 3.79807L13.2571 2.03376L13.2572 2.03375C13.5296 1.97888 13.8113 1.99231 14.0773 2.07284C14.3432 2.15336 14.5851 2.29848 14.7813 2.49523ZM8.42296 10.3308C8.64908 10.4818 8.91492 10.5625 9.18687 10.5625C9.55154 10.5625 9.90128 10.4176 10.1591 10.1598C10.417 9.9019 10.5619 9.55216 10.5619 9.18749C10.5619 8.91554 10.4812 8.6497 10.3301 8.42358C10.1791 8.19746 9.96431 8.02123 9.71306 7.91716C9.46181 7.81309 9.18534 7.78586 8.91862 7.83891C8.6519 7.89196 8.4069 8.02292 8.2146 8.21522C8.0223 8.40752 7.89135 8.65252 7.83829 8.91924C7.78524 9.18596 7.81247 9.46243 7.91654 9.71368C8.02061 9.96493 8.19684 10.1797 8.42296 10.3308Z" fill="#003270" stroke="#CECECE" stroke-width="0.125"/>
</svg>
