<svg width="28" height="28" viewBox="0 0 28 28" fill="none" xmlns="http://www.w3.org/2000/svg">
<path d="M13.4164 2.83047L4.59479 4.59479L2.83047 13.4164C2.80222 13.5576 2.80928 13.7037 2.85102 13.8415C2.89276 13.9794 2.9679 14.1048 3.06976 14.2067L14.4943 25.6312C14.5755 25.7125 14.672 25.7769 14.7782 25.8209C14.8843 25.8649 14.9981 25.8875 15.113 25.8875C15.2279 25.8875 15.3417 25.8649 15.4478 25.8209C15.554 25.7769 15.6505 25.7125 15.7317 25.6312L25.6312 15.7317C25.7125 15.6505 25.7769 15.554 25.8209 15.4478C25.8649 15.3417 25.8875 15.2279 25.8875 15.113C25.8875 14.9981 25.8649 14.8843 25.8209 14.7782C25.7769 14.672 25.7125 14.5755 25.6312 14.4943L14.2067 3.06976C14.1048 2.9679 13.9794 2.89276 13.8415 2.85102C13.7037 2.80928 13.5576 2.80222 13.4164 2.83047V2.83047Z" stroke="#CECECE" stroke-width="2" stroke-linecap="round" stroke-linejoin="round"/>
<path d="M9.1875 10.5C9.91237 10.5 10.5 9.91237 10.5 9.1875C10.5 8.46263 9.91237 7.875 9.1875 7.875C8.46263 7.875 7.875 8.46263 7.875 9.1875C7.875 9.91237 8.46263 10.5 9.1875 10.5Z" fill="#CECECE"/>
</svg>
