<svg width="88" height="88" viewBox="0 0 88 88" fill="none" xmlns="http://www.w3.org/2000/svg">
<circle cx="43.2666" cy="43.2667" r="27.8667" fill="#C6E1FF"/>
<path d="M43.2666 24.0167V29.5167" stroke="#164371" stroke-width="3" stroke-linecap="round" stroke-linejoin="round"/>
<path d="M43.2666 57.0167V62.5167" stroke="#164371" stroke-width="3" stroke-linecap="round" stroke-linejoin="round"/>
<path d="M76.2666 43.2667C76.2666 25.0413 61.492 10.2667 43.2666 10.2667C25.0412 10.2667 10.2666 25.0413 10.2666 43.2667C10.2666 61.4921 25.0412 76.2667 43.2666 76.2667" stroke="#164371" stroke-width="3" stroke-linecap="round" stroke-linejoin="round"/>
<path d="M50.5999 75.5334C62.9792 72.7244 72.7242 62.9794 75.5332 50.6001" stroke="#C6E1FF" stroke-width="3" stroke-linecap="round" stroke-linejoin="round"/>
<path d="M35.0166 57.0167H47.3916C49.215 57.0167 50.9636 56.2924 52.253 55.0031C53.5423 53.7138 54.2666 51.9651 54.2666 50.1417C54.2666 48.3184 53.5423 46.5697 52.253 45.2804C50.9636 43.9911 49.215 43.2667 47.3916 43.2667H39.1416C37.3182 43.2667 35.5696 42.5424 34.2802 41.2531C32.9909 39.9638 32.2666 38.2151 32.2666 36.3917C32.2666 34.5684 32.9909 32.8197 34.2802 31.5304C35.5696 30.2411 37.3182 29.5167 39.1416 29.5167H51.5166" stroke="#164371" stroke-width="3" stroke-linecap="round" stroke-linejoin="round"/>
</svg>
