<svg width="24" height="24" viewBox="0 0 24 24" fill="none" xmlns="http://www.w3.org/2000/svg">
<path d="M12 16.5C14.4853 16.5 16.5 14.4853 16.5 12C16.5 9.51472 14.4853 7.5 12 7.5C9.51472 7.5 7.5 9.51472 7.5 12C7.5 14.4853 9.51472 16.5 12 16.5Z" stroke="#003270" stroke-width="2" stroke-linecap="round" stroke-linejoin="round"/>
<path d="M17.2182 6.10186C17.4584 6.31452 17.6854 6.54156 17.8981 6.78174L20.4595 7.14752C20.8749 7.87084 21.1952 8.64476 21.4124 9.4501L19.8604 11.5193C19.8604 11.5193 19.8799 12.1605 19.8605 12.4807L21.4131 14.5506C21.1953 15.3558 20.8745 16.1295 20.4587 16.8525L17.8981 17.2183C17.8981 17.2183 17.4585 17.6855 17.2183 17.8981L16.8526 20.4596C16.1292 20.875 15.3553 21.1952 14.55 21.4124L12.4809 19.8605C12.1607 19.88 11.8396 19.88 11.5194 19.8605L9.4495 21.4131C8.64431 21.1953 7.8706 20.8746 7.14756 20.4587L6.78186 17.8982C6.54168 17.6856 6.31463 17.4585 6.10197 17.2184L3.5405 16.8526C3.12511 16.1293 2.80485 15.3553 2.58765 14.55L4.13963 12.4808C4.13963 12.4808 4.12011 11.8396 4.13957 11.5194L2.58698 9.44952C2.80472 8.64433 3.12551 7.87063 3.54138 7.14758L6.10183 6.78189C6.31449 6.5417 6.54154 6.31465 6.78172 6.10199L7.14749 3.54052C7.87081 3.12514 8.64473 2.80488 9.45007 2.58768L11.5192 4.1396C11.8394 4.12014 12.1605 4.12013 12.4807 4.1396L14.5505 2.587C15.3557 2.80475 16.1294 3.12553 16.8525 3.54141L17.2182 6.10186Z" stroke="#003270" stroke-width="2" stroke-linecap="round" stroke-linejoin="round"/>
</svg>
