<svg width="32" height="33" viewBox="0 0 32 33" fill="none" xmlns="http://www.w3.org/2000/svg">
<path opacity="0.2" d="M16 28.2852C22.6274 28.2852 28 22.9126 28 16.2852C28 9.65774 22.6274 4.28516 16 4.28516C9.37258 4.28516 4 9.65774 4 16.2852C4 22.9126 9.37258 28.2852 16 28.2852Z" fill="white"/>
<path d="M16 28.2852C22.6274 28.2852 28 22.9126 28 16.2852C28 9.65774 22.6274 4.28516 16 4.28516C9.37258 4.28516 4 9.65774 4 16.2852C4 22.9126 9.37258 28.2852 16 28.2852Z" stroke="white" stroke-width="2" stroke-miterlimit="10"/>
<path d="M4.68311 12.2852H27.3162" stroke="white" stroke-width="2" stroke-linecap="round" stroke-linejoin="round"/>
<path d="M4.68359 20.2852H27.3166" stroke="white" stroke-width="2" stroke-linecap="round" stroke-linejoin="round"/>
<path d="M16 27.9632C18.7614 27.9632 21 22.7348 21 16.2853C21 9.83578 18.7614 4.60742 16 4.60742C13.2386 4.60742 11 9.83578 11 16.2853C11 22.7348 13.2386 27.9632 16 27.9632Z" stroke="white" stroke-width="2" stroke-miterlimit="10"/>
</svg>
