<svg width="24" height="22" viewBox="0 0 24 22" fill="none" xmlns="http://www.w3.org/2000/svg">
<path d="M5.4513 21.277H5.38897C5.31714 21.2689 5.24764 21.2466 5.18451 21.2114C5.12137 21.1762 5.06586 21.1288 5.0212 21.072C4.97655 21.0152 4.94363 20.95 4.92437 20.8803C4.90512 20.8107 4.8999 20.7379 4.90903 20.6662L5.4513 16.3373V13.6416C5.45362 13.5559 5.47502 13.4718 5.51392 13.3954C5.55283 13.3191 5.60827 13.2523 5.67621 13.2001C5.74415 13.1479 5.82289 13.1114 5.90668 13.0934C5.99048 13.0755 6.07723 13.0764 6.16062 13.0962C6.20924 13.0962 11.4182 14.6451 13.9045 13.1504C13.9663 13.1049 14.0369 13.073 14.1118 13.0566C14.1868 13.0403 14.2643 13.0399 14.3393 13.0555C14.4144 13.0711 14.4854 13.1024 14.5476 13.1472C14.6098 13.192 14.6618 13.2495 14.7004 13.3158C14.7389 13.3821 14.763 13.4558 14.7712 13.532C14.7793 13.6083 14.7713 13.6854 14.7477 13.7583C14.7241 13.8313 14.6853 13.8984 14.634 13.9554C14.5827 14.0124 14.52 14.058 14.4499 14.0891C12.1375 15.5015 8.17825 14.7323 6.54146 14.3502V16.3685C6.54458 16.3902 6.54458 16.4122 6.54146 16.4339L5.99607 20.7971C5.97999 20.9301 5.91551 21.0525 5.81492 21.1411C5.71433 21.2296 5.58467 21.278 5.45068 21.277H5.4513Z" fill="#003270"/>
<path d="M13.0868 21.8223C12.9421 21.8223 12.8034 21.7649 12.7011 21.6626C12.5988 21.5603 12.5414 21.4216 12.5414 21.2769C12.5414 20.1862 14.3084 18.2228 15.1705 17.3389L13.6745 13.854C13.6431 13.7876 13.6254 13.7154 13.6225 13.642C13.6196 13.5685 13.6316 13.4952 13.6578 13.4265C13.684 13.3578 13.7238 13.2951 13.7748 13.2421C13.8258 13.1892 13.887 13.1471 13.9548 13.1184C14.0225 13.0898 14.0953 13.0751 14.1688 13.0753C14.2423 13.0754 14.315 13.0905 14.3826 13.1195C14.4502 13.1485 14.5112 13.1908 14.562 13.244C14.6127 13.2972 14.6522 13.3601 14.6781 13.4289L16.3142 17.2467C16.3572 17.3466 16.3692 17.4572 16.3488 17.5641C16.3283 17.6709 16.2764 17.7692 16.1996 17.8463C14.9617 19.0929 13.6309 20.759 13.6309 21.2745C13.6313 21.3462 13.6176 21.4173 13.5904 21.4837C13.5633 21.5502 13.5232 21.6106 13.4727 21.6615C13.4221 21.7124 13.362 21.7528 13.2958 21.7804C13.2296 21.808 13.1585 21.8223 13.0868 21.8223Z" fill="#003270"/>
<path d="M17.4499 21.2769H17.3732C17.3012 21.2675 17.2318 21.2438 17.1691 21.2071C17.1064 21.1705 17.0516 21.1218 17.0079 21.0637C16.9643 21.0057 16.9326 20.9395 16.9149 20.8691C16.8971 20.7987 16.8936 20.7254 16.9045 20.6536L17.4499 17.0597L15.9284 15.0595C15.8703 14.9844 15.8329 14.8954 15.8198 14.8014C15.8067 14.7074 15.8183 14.6116 15.8535 14.5234C15.8888 14.4353 15.9465 14.3579 16.0208 14.2988C16.0951 14.2398 16.1836 14.2012 16.2774 14.1869C16.5498 14.1376 19.0044 13.6415 18.5519 10.9962C18.5126 10.7591 18.425 10.5326 18.2944 10.3309C18.1637 10.1292 17.993 9.95655 17.7927 9.82374C16.1565 8.66751 12.6772 9.27835 12.6442 9.27835C12.5865 9.28894 12.5274 9.28894 12.4697 9.27835C12.3008 9.27835 8.28109 8.65131 7.65405 6.14251C7.40518 5.17092 6.7974 4.32971 5.95311 3.78833C5.10882 3.24694 4.09074 3.04559 3.10393 3.22483C2.96198 3.24498 2.8178 3.20848 2.70252 3.12323L2.17895 2.73616V3.44548C2.17823 3.53235 2.15687 3.61781 2.11662 3.6948L1.62546 6.63991V6.72717L1.25147 7.84537L1.92277 8.06852L2.2606 7.39784C2.26755 7.37759 2.27882 7.35908 2.29364 7.34362L3.38442 5.70744C3.44118 5.61292 3.52614 5.53856 3.62736 5.49483C3.72858 5.4511 3.84096 5.44019 3.94869 5.46365C4.05643 5.48711 4.1541 5.54375 4.22797 5.62561C4.30184 5.70747 4.34819 5.81042 4.36051 5.91999L4.9059 9.73772C4.92396 9.84805 4.90465 9.96124 4.85105 10.0593L4.40975 10.9482L4.88409 12.3662C4.91377 12.4604 4.91728 12.561 4.89422 12.657C4.87116 12.7531 4.82241 12.8411 4.75319 12.9116L2.28242 15.3774C2.66272 16.2871 3.09647 17.1735 3.58138 18.032C3.6567 18.0065 3.73656 17.9971 3.81574 18.0046C3.88739 18.0045 3.95835 18.0186 4.02455 18.0459C4.09076 18.0733 4.15092 18.1135 4.20158 18.1642C4.25224 18.2148 4.29241 18.275 4.31979 18.3412C4.34716 18.4074 4.36122 18.4783 4.36113 18.55C4.36113 19.0954 4.1704 19.4338 3.81574 19.5099C3.46108 19.5859 2.89388 19.69 1.15424 15.4852C1.11254 15.3858 1.10118 15.2763 1.12159 15.1705C1.142 15.0647 1.19326 14.9673 1.26893 14.8906L3.76214 12.4036L3.32084 11.0897C3.29804 11.021 3.28917 10.9485 3.29473 10.8764C3.3003 10.8042 3.32019 10.7339 3.35325 10.6696L3.81512 9.73024L3.4935 7.49445L3.21488 7.91456L2.66949 8.97792C2.61071 9.09504 2.51168 9.18706 2.39056 9.23709C2.26943 9.28712 2.13433 9.29181 2.01003 9.2503L0.373862 8.70491C0.305654 8.68231 0.242584 8.64646 0.188276 8.59941C0.133967 8.55236 0.0894906 8.49504 0.0574027 8.43075C0.0253148 8.36646 0.0062474 8.29646 0.00129627 8.22477C-0.00365486 8.15309 0.00560822 8.08114 0.0285525 8.01304L0.573943 6.4205L1.11933 3.23542V1.64288C1.11819 1.54413 1.14454 1.447 1.19545 1.36236C1.24635 1.27773 1.3198 1.20893 1.40757 1.16365C1.49534 1.11837 1.59398 1.09841 1.69245 1.10599C1.79093 1.11357 1.88535 1.14839 1.96516 1.20657L3.18122 2.11722C4.40545 1.95172 5.6477 2.2436 6.67012 2.93698C7.69253 3.63037 8.42326 4.67651 8.72239 5.87511C9.08764 7.32554 11.531 8.01803 12.5401 8.18133C13.1634 8.07787 16.5542 7.60353 18.4191 8.91247C18.7411 9.13205 19.0148 9.4152 19.2233 9.74449C19.4318 10.0738 19.5707 10.4423 19.6314 10.8273C19.8261 11.696 19.6933 12.6061 19.2585 13.383C18.8238 14.16 18.1176 14.7491 17.2754 15.0377L18.4372 16.5866C18.4802 16.6438 18.5114 16.7089 18.5292 16.7782C18.547 16.8475 18.5508 16.9197 18.5407 16.9905L17.9953 20.8082C17.9767 20.9392 17.9111 21.059 17.8108 21.1452C17.7104 21.2314 17.5822 21.2783 17.4499 21.2769Z" fill="#003270"/>
<path d="M23.4492 17.9666C23.3219 17.9668 23.1985 17.9227 23.1001 17.8419L22.9038 17.7484C20.9442 16.6968 19.3688 15.0507 18.4041 13.0469C18.3445 12.9153 18.3393 12.7656 18.3897 12.6302C18.4402 12.4949 18.5421 12.385 18.6732 12.3246C18.8044 12.2642 18.9541 12.2581 19.0897 12.3077C19.2254 12.3573 19.3359 12.4586 19.3971 12.5893C20.0765 14.0241 21.1201 15.2557 22.4238 16.1615L22.3696 15.9976C22.3665 15.9667 22.3665 15.9356 22.3696 15.9047C21.8841 12.7364 20.9734 11.5416 20.2971 11.0566C20.1112 10.9242 19.8997 10.832 19.6761 10.7861C19.4526 10.7401 19.2218 10.7414 18.9988 10.7899C18.9272 10.8049 18.8533 10.8057 18.7814 10.7921C18.7094 10.7786 18.6409 10.751 18.5796 10.711C18.5184 10.671 18.4656 10.6193 18.4243 10.5589C18.383 10.4984 18.354 10.4305 18.339 10.3589C18.324 10.2872 18.3232 10.2134 18.3368 10.1414C18.3503 10.0695 18.3779 10.001 18.4179 9.93971C18.4579 9.87844 18.5096 9.82566 18.57 9.78438C18.6304 9.74309 18.6984 9.71411 18.77 9.69909C19.138 9.61989 19.5184 9.61776 19.8872 9.69286C20.256 9.76795 20.6053 9.91863 20.913 10.1354C22.1515 10.9806 22.9967 12.8624 23.4436 15.671L23.9634 17.2249C23.9954 17.3078 24.0067 17.3973 23.9962 17.4856C23.9857 17.5739 23.9537 17.6583 23.9032 17.7314C23.8526 17.8046 23.7849 17.8642 23.706 17.9052C23.6271 17.9462 23.5393 17.9673 23.4504 17.9666H23.4492Z" fill="#003270"/>
<path d="M9.20362 7.93697C9.05898 7.93697 8.92025 7.87951 8.81797 7.77723C8.71569 7.67495 8.65823 7.53623 8.65823 7.39158L8.72056 3.57385L5.03123 1.27199L3.68988 2.99044C3.6458 3.047 3.59102 3.09433 3.52865 3.12971C3.46628 3.1651 3.39756 3.18786 3.32639 3.19668C3.25523 3.20551 3.18303 3.20023 3.1139 3.18116C3.04478 3.16208 2.98009 3.12957 2.92353 3.08549C2.86697 3.04142 2.81965 2.98663 2.78426 2.92426C2.74887 2.86189 2.72611 2.79317 2.71729 2.722C2.70846 2.65084 2.71374 2.57864 2.73281 2.50951C2.75189 2.44039 2.7844 2.3757 2.82848 2.31914L4.46465 0.208637C4.54785 0.102518 4.66746 0.0310304 4.80033 0.00800314C4.93319 -0.0150242 5.06988 0.0120459 5.18394 0.0839763L9.54706 2.81093C9.62845 2.85901 9.69592 2.92746 9.7428 3.00954C9.78969 3.09162 9.81439 3.1845 9.81446 3.27903L9.74901 7.39283C9.7491 7.46448 9.73504 7.53543 9.70767 7.60164C9.68029 7.66785 9.64012 7.728 9.58946 7.77866C9.53879 7.82932 9.47864 7.86949 9.41243 7.89687C9.34623 7.92425 9.27527 7.9383 9.20362 7.93822V7.93697Z" fill="#003270"/>
</svg>
