<svg width="90" height="48" viewBox="0 0 90 48" fill="none" xmlns="http://www.w3.org/2000/svg">
<path d="M88 23.8203H72.9586" stroke="#CECECE" stroke-width="3" stroke-linecap="round" stroke-linejoin="round"/>
<path d="M2 23.8203H17.0414" stroke="#CECECE" stroke-width="3" stroke-linecap="round" stroke-linejoin="round"/>
<path d="M83.9893 44.4414L71.1955 36.5317" stroke="#CECECE" stroke-width="3" stroke-linecap="round" stroke-linejoin="round"/>
<path d="M6.01074 44.4414L18.8045 36.5317" stroke="#CECECE" stroke-width="3" stroke-linecap="round" stroke-linejoin="round"/>
<path d="M83.9893 3.44141L71.1955 11.3511" stroke="#CECECE" stroke-width="3" stroke-linecap="round" stroke-linejoin="round"/>
<path d="M6.01074 3.44141L18.8045 11.3511" stroke="#CECECE" stroke-width="3" stroke-linecap="round" stroke-linejoin="round"/>
<rect x="26" y="15" width="3" height="36" transform="rotate(-90 26 15)" fill="#C6E1FF"/>
<path d="M35.5033 37.8518L29.4652 42.9276C29.2466 43.1115 28.98 43.229 28.6968 43.2665C28.4136 43.304 28.1256 43.2598 27.8667 43.1392C27.6077 43.0186 27.3886 42.8266 27.2351 42.5857C27.0816 42.3448 27 42.0651 27 41.7794V12C27 11.6022 27.158 11.2206 27.4393 10.9393C27.7206 10.658 28.1022 10.5 28.5 10.5H61.5C61.8978 10.5 62.2794 10.658 62.5607 10.9393C62.842 11.2206 63 11.6022 63 12V36C63 36.3978 62.842 36.7794 62.5607 37.0607C62.2794 37.342 61.8978 37.5 61.5 37.5H36.4685C36.1154 37.5 35.7736 37.6246 35.5033 37.8518Z" stroke="#CECECE" stroke-width="3" stroke-linecap="round" stroke-linejoin="round"/>
</svg>
