<svg width="50" height="45" viewBox="0 0 50 45" fill="none" xmlns="http://www.w3.org/2000/svg">
<path d="M25.0581 42.8874C25.0581 42.8874 1.8042 29.8652 1.8042 14.0525C1.80467 11.2577 2.77308 8.54932 4.54478 6.38782C6.31648 4.22633 8.7821 2.74516 11.5225 2.19613C14.2628 1.6471 17.1087 2.0641 19.5764 3.37624C22.044 4.68839 23.9811 6.81467 25.0582 9.39359C26.1352 6.81467 28.0722 4.6884 30.5399 3.37625C33.0075 2.06411 35.8534 1.6471 38.5938 2.19613C41.3342 2.74515 43.7998 4.22633 45.5715 6.38782C47.3432 8.54931 48.3116 11.2577 48.3121 14.0525C48.3121 29.8652 25.0581 42.8874 25.0581 42.8874Z" stroke="#CECECE" stroke-width="3" stroke-linecap="round" stroke-linejoin="round"/>
</svg>
