<svg width="28" height="28" viewBox="0 0 28 28" fill="none" xmlns="http://www.w3.org/2000/svg">
<path d="M14 17.9375C16.6579 17.9375 18.8125 15.7829 18.8125 13.125C18.8125 10.4671 16.6579 8.3125 14 8.3125C11.3421 8.3125 9.1875 10.4671 9.1875 13.125C9.1875 15.7829 11.3421 17.9375 14 17.9375Z" fill="#003270"/>
<path d="M14 2.625C11.7502 2.625 9.551 3.29213 7.68039 4.54203C5.80978 5.79193 4.35182 7.56847 3.49088 9.64698C2.62993 11.7255 2.40467 14.0126 2.84357 16.2192C3.28248 18.4257 4.36584 20.4525 5.95667 22.0433C7.54749 23.6342 9.57432 24.7175 11.7809 25.1564C13.9874 25.5953 16.2745 25.3701 18.353 24.5091C20.4315 23.6482 22.2081 22.1902 23.458 20.3196C24.7079 18.449 25.375 16.2498 25.375 14C25.3716 10.9842 24.1721 8.09292 22.0396 5.96043C19.9071 3.82794 17.0158 2.62841 14 2.625ZM21.1923 20.3886C20.4899 19.371 19.579 18.5144 18.5202 17.8758C17.3026 19.0386 15.6837 19.6875 14 19.6875C12.3163 19.6875 10.6974 19.0386 9.47985 17.8758C8.421 18.5144 7.51012 19.371 6.80769 20.3886C5.5745 19.0019 4.76845 17.2883 4.48662 15.4541C4.20479 13.62 4.4592 11.7434 5.2192 10.0505C5.9792 8.35754 7.21238 6.9204 8.77026 5.9121C10.3281 4.90381 12.1443 4.36737 14 4.36737C15.8557 4.36737 17.6718 4.90381 19.2297 5.9121C20.7876 6.9204 22.0208 8.35754 22.7808 10.0505C23.5408 11.7434 23.7952 13.62 23.5134 15.4541C23.2315 17.2883 22.4255 19.0019 21.1923 20.3886Z" fill="#003270"/>
</svg>
