<svg width="24" height="24" viewBox="0 0 24 24" fill="none" xmlns="http://www.w3.org/2000/svg">
<path d="M17.3429 3.47514L13.409 7.40906L13.9393 10.0607L16.591 10.591L20.5249 6.65712L20.5253 6.65695C21.0122 7.80636 21.1287 9.07897 20.8585 10.2977C20.5882 11.5164 19.9448 12.6205 19.0177 13.4563C18.0905 14.2922 16.9259 14.8182 15.6858 14.9612C14.4457 15.1041 13.1919 14.8569 12.0989 14.2539L12.0991 14.2537L6.84099 20.341C6.41895 20.7626 5.84678 20.9993 5.25027 20.9991C4.65375 20.999 4.08172 20.7619 3.65992 20.3401C3.23812 19.9183 3.00108 19.3463 3.00091 18.7498C3.00074 18.1533 3.23745 17.5811 3.65901 17.1591L9.74633 11.9011L9.7462 11.9011C9.1432 10.8081 8.89596 9.55434 9.0389 8.31427C9.18185 7.07419 9.70786 5.90953 10.5437 4.98241C11.3796 4.05528 12.4837 3.41182 13.7024 3.1416C14.9211 2.87137 16.1937 2.98783 17.3431 3.47475L17.3429 3.47514Z" stroke="#003270" stroke-width="2" stroke-linecap="round" stroke-linejoin="round"/>
</svg>
